<svg width="75" height="22" viewBox="0 0 75 22" fill="none" xmlns="http://www.w3.org/2000/svg">
<path d="M12.3047 6.12305C12.1289 4.30664 10.5762 3.25195 8.29102 3.25195C5.88867 3.25195 4.42383 4.42383 4.42383 6.00586C4.42383 7.79297 6.29883 8.52539 8.05664 8.93555L10.0488 9.46289C13.2129 10.1953 16.2598 11.8652 16.2598 15.5566C16.2598 19.2773 13.3301 21.8262 8.23242 21.8262C3.28125 21.8262 0.175781 19.4531 0 15.2637H3.75C3.92578 17.4902 5.80078 18.5742 8.20312 18.5742C10.7227 18.5742 12.4512 17.3438 12.4512 15.5273C12.4512 13.8574 10.8984 13.1543 8.61328 12.5684L6.21094 11.9531C2.72461 11.0449 0.556641 9.28711 0.556641 6.24023C0.556641 2.49023 3.89648 0 8.34961 0C12.8613 0 15.9082 2.54883 15.9668 6.12305H12.3047ZM18.4863 3.48633V0.292969H35.3906V3.48633H28.8574V21.5039H25.0488V3.48633H18.4863ZM35.3027 17.0215C35.3027 13.4473 38.2617 12.3926 41.2207 12.2168C42.3193 12.1436 44.6045 12.0117 45.293 11.9824V10.7227C45.293 9.14062 44.2676 8.23242 42.4219 8.23242C40.752 8.23242 39.7266 8.99414 39.4336 10.1367H35.8301C36.0938 7.44141 38.5254 5.39062 42.5098 5.39062C45.5273 5.39062 49.0137 6.62109 49.0137 10.8691V21.5039H45.4395V19.3066H45.3223C44.6191 20.6543 43.125 21.8262 40.6348 21.8262C37.5879 21.8262 35.3027 20.1562 35.3027 17.0215ZM38.9062 16.9922C38.9062 18.3691 40.0195 19.0723 41.6016 19.0723C43.8574 19.0723 45.3223 17.5781 45.3223 15.791V14.4727L41.8066 14.707C40.0195 14.8535 38.9062 15.5859 38.9062 16.9922ZM56.2793 0.292969V21.5039H52.5293V0.292969H56.2793ZM59.8535 21.5039V0.292969H63.6035V11.9824H63.8672L69.5801 5.5957H73.9453L67.793 12.4512L74.3262 21.5039H69.873L64.9805 14.6777L63.6035 16.1426V21.5039H59.8535Z" fill="#12B981"/>
</svg>
