<svg width="13" height="18" viewBox="0 0 13 18" fill="none" xmlns="http://www.w3.org/2000/svg">
<path d="M6.5 0C6.67239 0 6.83772 0.0677294 6.95962 0.188288C7.08152 0.308848 7.15 0.472361 7.15 0.642857V1.28571H9.75C10.2672 1.28571 10.7632 1.4889 11.1289 1.85058C11.4946 2.21226 11.7 2.7028 11.7 3.21429V7.07143C11.7 7.58292 11.4946 8.07346 11.1289 8.43513C10.7632 8.79681 10.2672 9 9.75 9H3.25C2.73283 9 2.23684 8.79681 1.87114 8.43513C1.50545 8.07346 1.3 7.58292 1.3 7.07143V3.21429C1.3 2.7028 1.50545 2.21226 1.87114 1.85058C2.23684 1.4889 2.73283 1.28571 3.25 1.28571H5.85V0.642857C5.85 0.472361 5.91848 0.308848 6.04038 0.188288C6.16228 0.0677294 6.32761 0 6.5 0ZM1.95 10.9286C1.43283 10.9286 0.936838 11.1318 0.571142 11.4934C0.205446 11.8551 0 12.3457 0 12.8571V13.3071C0 14.985 0.78 16.2 2.0202 16.9624C3.2227 17.7017 4.823 18 6.5 18C8.1861 18 9.7864 17.703 10.9876 16.9624C12.2278 16.2 13 14.9824 13 13.3071V12.8571C13 12.3457 12.7946 11.8551 12.4289 11.4934C12.0632 11.1318 11.5672 10.9286 11.05 10.9286H1.95ZM4.55 6.10714C4.80859 6.10714 5.05658 6.00555 5.23943 5.82471C5.42228 5.64387 5.525 5.3986 5.525 5.14286C5.525 4.88711 5.42228 4.64184 5.23943 4.461C5.05658 4.28017 4.80859 4.17857 4.55 4.17857C4.29141 4.17857 4.04342 4.28017 3.86057 4.461C3.67772 4.64184 3.575 4.88711 3.575 5.14286C3.575 5.3986 3.67772 5.64387 3.86057 5.82471C4.04342 6.00555 4.29141 6.10714 4.55 6.10714ZM9.425 5.14286C9.425 4.88711 9.32228 4.64184 9.13943 4.461C8.95658 4.28017 8.70859 4.17857 8.45 4.17857C8.19141 4.17857 7.94342 4.28017 7.76057 4.461C7.57772 4.64184 7.475 4.88711 7.475 5.14286C7.475 5.3986 7.57772 5.64387 7.76057 5.82471C7.94342 6.00555 8.19141 6.10714 8.45 6.10714C8.70859 6.10714 8.95658 6.00555 9.13943 5.82471C9.32228 5.64387 9.425 5.3986 9.425 5.14286Z" fill="white"/>
</svg>
