<svg width="19" height="14" viewBox="0 0 19 14" fill="none" xmlns="http://www.w3.org/2000/svg">
<path d="M18.396 0.00165196L13.9218 0.540715C13.7736 0.558683 13.7107 0.740617 13.8163 0.846183L15.1482 2.17812L10.072 7.25429L7.7855 4.97001C7.644 4.82851 7.41714 4.83075 7.27788 4.97001L0.0521993 12.1979C0.018759 12.2317 0 12.2773 0 12.3248C0 12.3724 0.018759 12.418 0.0521993 12.4518L1.06294 13.467C1.13257 13.5366 1.24712 13.5366 1.31675 13.467L7.53169 7.25429L9.81597 9.53857C9.95747 9.67782 10.1843 9.67782 10.3236 9.53857L16.4195 3.44716L17.7514 4.77909C17.7753 4.80284 17.8053 4.81942 17.8382 4.82694C17.871 4.83445 17.9053 4.8326 17.9371 4.82161C17.9689 4.81061 17.997 4.7909 18.0182 4.76472C18.0394 4.73854 18.0528 4.70695 18.0569 4.67353L18.5959 0.199308C18.6117 0.0847572 18.5128 -0.0140707 18.396 0.00165196Z" fill="#848484"/>
</svg>
